<svg xmlns="http://www.w3.org/2000/svg" height="512" preserveAspectRatio="none" style="display: block;" version="1.1" viewBox="0 0 2048 2048" width="512">
<path d="M 883.796 266.999 C 892.673 266.158 916.304 266.974 926.157 267.007 L 1108.73 266.943 C 1181.7 266.866 1233.02 269.175 1285.44 332.133 C 1329.18 384.676 1325.66 435.244 1325.51 499.152 L 1325.64 670.544 C 1326.1 767.52 1308.86 780.988 1232.84 829.106 L 1146.74 883.94 C 1131.44 893.775 1111.74 905.61 1097.93 916.672 L 1097.93 1199.68 C 1139.77 1223.62 1135.01 1259.15 1142.37 1301.34 L 1159.87 1406.59 C 1172.6 1487.25 1171.32 1548.31 1172.16 1629.83 C 1172.61 1673.42 1154.63 1709.64 1123.68 1739.95 C 1051.18 1807.31 936.986 1783.83 892.487 1697.64 C 868.794 1651.76 871.36 1524.27 878.756 1471.18 C 887.226 1409.94 896.358 1348.46 907.887 1287.71 C 915.463 1247.78 910.5 1219.96 951.439 1199.68 L 951.439 916.672 C 902.553 893.599 827.599 837.595 780.75 806.45 C 723.81 768.597 721.928 719.55 722.007 659.087 L 722.018 483.587 C 722.012 365.206 755.593 287.635 883.796 266.999 z M 763.49 671 L 1159.56 671 L 1284.04 671 L 1284 515.186 C 1284.01 453.109 1292.67 395.625 1244.3 348.272 C 1192.87 297.922 1129.02 307.924 1062.82 308.011 L 890.203 307.888 C 888.938 307.9 887.752 307.955 886.49 308.012 C 826.813 317.549 774.463 357.318 765.671 420.282 C 761.889 447.364 763.508 481.656 763.508 509.561 L 763.49 671 z M 1192.23 805.942 C 1237.71 775.831 1268.31 769.694 1284.04 712.56 L 820.462 712.553 C 801.816 712.526 781.858 711.295 763.49 712.56 C 781.108 782.37 878.239 817.577 937.116 859.63 C 1023.22 921.132 1037.05 905.005 1118.22 853.114 L 1192.23 805.942 z M 1026.2 1234.5 C 977.967 1234.28 959.983 1225.27 951.394 1281.39 C 932.571 1404.39 912.132 1501.37 917.057 1627.14 C 920.143 1694.28 964.118 1732.55 1027.92 1739.95 C 1039.08 1735.85 1050.24 1733.68 1060.9 1729.86 C 1125.97 1706.49 1134.18 1644.61 1131.11 1585.09 C 1130.8 1558.11 1131.7 1530.98 1130.41 1504.03 C 1125.46 1438.06 1108.54 1319.46 1091.25 1252.97 C 1084.6 1227.38 1044.93 1234.71 1026.2 1234.5 z M 992.948 938.582 C 990.427 1023.01 995.395 1107.72 992.243 1192.18 C 993.68 1193.53 992.78 1193.07 995.078 1193.26 L 1057.01 1193.26 C 1057.01 1166.79 1059.06 947.045 1055.93 938.563 C 1053.66 938.155 1054.58 937.91 1052.74 938.582 C 1026.8 941.667 1018.87 941.879 992.948 938.582 z" fill="rgb(1,1,1)" transform="translate(0,0)"></path>
<path d="M 1020.66 415.219 C 1033.08 414.555 1039.1 421.313 1045.03 431.14 C 1045.02 478.714 1046.3 532.013 1045.03 579.132 C 1039.27 588.153 1036.54 590.428 1026.2 592.912 C 1016.78 593.528 1009.27 589.643 1005.09 580.813 C 1001.04 572.23 1000.75 436.873 1004.72 427.574 C 1007.79 420.404 1013.96 417.944 1020.66 415.219 z" fill="rgb(1,1,1)" transform="translate(0,0)"></path>
<path d="M 1179.78 415.219 C 1186.97 416.705 1195.37 419.112 1198.47 426.613 C 1202.12 435.441 1202.72 573.513 1199.17 581.405 C 1196.19 588.042 1189.97 590.615 1183.54 592.912 C 1175.83 592.726 1164.49 590.879 1161.62 582.374 C 1158.12 571.991 1158.57 453.584 1160.06 434.97 C 1161.09 421.974 1167.34 418.252 1179.78 415.219 z" fill="rgb(1,1,1)" transform="translate(0,0)"></path>
<path d="M 858.169 415.219 C 876.342 416.905 886.416 419.803 886.302 440.425 C 886.117 474.076 898.057 577.273 872.346 592.912 C 856.964 595.35 846.668 587.89 846.138 572.069 C 844.885 532.502 845.648 492.758 845.376 453.15 C 845.25 434.826 842.308 426.561 858.169 415.219 z" fill="rgb(1,1,1)" transform="translate(0,0)"></path>
<path d="M 972.376 1550.94 C 1010.79 1551.78 987.55 1612.05 997.745 1634.5 C 1006.63 1654.07 1023.33 1655.68 1040.97 1662.51 C 1062.59 1672.3 1055.23 1696.57 1034.82 1703.12 C 968.477 1691.05 949.775 1654.94 953.959 1592.88 C 955.337 1572.43 947.162 1559.3 972.376 1550.94 z" fill="rgb(1,1,1)" transform="translate(0,0)"></path>
</svg>