<svg xmlns="http://www.w3.org/2000/svg" height="512" preserveAspectRatio="none" style="display: block;" version="1.1" viewBox="0 0 2048 2048" width="512">
<path d="M 910.753 268.402 C 920.579 266.81 952.614 267.963 963.443 268.407 C 1042.55 271.65 1110.04 253.599 1115.72 360.104 C 1172.48 361.068 1230.61 359.314 1287.52 360.149 C 1387.95 364.958 1397.01 336.628 1401.01 456.406 C 1487.87 478.078 1503.94 536.182 1503.97 618.469 L 1503.99 927.831 C 1503.94 1033.02 1443.8 1087.18 1340.79 1087.14 L 1282.11 1087.04 C 1271.59 1154.37 1281.23 1179.06 1224.99 1232.84 L 1224.99 1369.98 C 1284.22 1366.85 1294.54 1397.33 1306.68 1445.95 L 1352.13 1629.12 C 1382.48 1750.05 1366.01 1774.05 1242.95 1774.05 L 1137.5 1774 L 695.521 1774.06 C 678.624 1774.07 656.654 1775.42 640.415 1772.87 C 556.499 1759.67 578.703 1683.2 594.543 1629.64 L 642.552 1460.41 C 656.273 1410.8 661.289 1373.4 722.281 1369.98 C 723.666 1354.23 722.475 1336.59 722.363 1320.5 L 722.281 1232.84 C 680.843 1169.45 682.272 1181.48 671.41 1104.34 L 594.871 578.353 C 592.325 559 588.972 527.46 584.451 509.478 C 556.262 495.239 543.351 476.387 544.17 444.363 C 544.573 375.636 556.693 360.591 626.351 360.074 L 840.296 360.104 C 843.339 316.227 862.238 273.383 910.753 268.402 z M 1229.64 1134.24 C 1235.96 1090.76 1240.81 1045.16 1246.63 1001.33 L 1303.78 578.565 C 1306.31 560.461 1309.95 525.68 1313.55 509.478 C 1271.41 508.469 1225.01 509.476 1182.53 509.481 L 726.159 509.477 C 698.271 509.473 658.944 508.228 631.794 509.478 L 718.044 1093.98 C 734.024 1202.75 752.919 1223.04 863.236 1222.61 L 1073.49 1222.56 C 1138.79 1222.62 1219.09 1222.93 1229.64 1134.24 z M 623.292 1706.3 C 642.425 1737.23 660.382 1728.16 695.402 1728.06 L 1229.64 1727.99 C 1263.77 1728.09 1309.29 1739.27 1322.54 1702.81 C 1319.33 1684.08 1312.63 1660.77 1307.85 1642.04 L 1265.6 1473.68 C 1261.49 1456.63 1258.61 1415.17 1235.49 1415.21 L 772.329 1415.37 C 763.273 1415.35 726.542 1414.48 719.804 1415.35 C 702.12 1418.4 700.865 1423.79 696.512 1439.62 L 640.114 1640.86 C 635.776 1656.42 623.222 1692.93 623.292 1706.3 z M 1288.28 1041 L 1361.98 1041 C 1458.02 1031.8 1457 961.668 1457.01 889.644 L 1456.99 638.064 C 1457.03 569.301 1467.22 521.505 1382.76 501.085 C 1373.26 504.926 1368.01 506.945 1358.17 509.478 C 1357.07 528.413 1352.43 557.145 1349.83 576.639 L 1302.56 933.278 C 1297.72 968.959 1293.48 1005.48 1288.28 1041 z M 1178.1 1363.03 C 1178.13 1329.79 1178.91 1293.61 1178.1 1260.59 C 1140.14 1270.93 1117.51 1269.09 1078.34 1269.08 L 860.575 1269.07 C 826.975 1269.12 801.427 1272.14 768.999 1260.59 L 768.999 1369.98 L 1143.8 1369.88 C 1157.22 1369.85 1178.35 1375.71 1178.1 1363.03 z M 1069.43 360.104 C 1065.69 338.416 1065.76 317.086 1037.28 315.296 C 999.38 312.914 948.66 313.536 910.753 314.769 C 892.766 324.471 887.986 340.974 886.237 360.104 L 1046.5 360.104 L 1069.43 360.104 z M 746.283 461.998 L 1353.03 461.998 C 1353.02 444.347 1352.51 424.222 1353.03 406.793 L 1199.94 406.793 L 658.629 406.788 C 644.408 406.791 605.262 405.914 593.106 409.17 C 590.203 416.199 591.052 452.249 593.775 459.916 C 601.618 464.506 726.533 462.016 746.283 461.998 z" fill="rgb(1,1,1)" transform="translate(0,0)"></path>
<path d="M 757.091 779.004 C 787.902 778.223 786.04 809.078 789.35 832.645 L 814.249 1003.9 C 817.774 1028.78 832.93 1069.66 802.352 1077.98 C 764.197 1078.55 764.825 987.598 760.118 955.662 L 745.116 852.713 C 741.094 824 726.307 790.476 757.091 779.004 z" fill="rgb(1,1,1)" transform="translate(0,0)"></path>
<path d="M 731.843 611.237 C 759.352 609.957 760.341 643.841 762.407 663.86 C 764.991 688.901 776.494 714.538 746.283 723.875 C 713.254 725.695 710.437 652.05 711.023 627.801 C 716.539 616.803 719.79 613.819 731.843 611.237 z" fill="rgb(1,1,1)" transform="translate(0,0)"></path>
<path d="M 924.283 1495.22 C 954.573 1494.46 985.428 1495.69 1015.68 1495.06 C 1124.96 1492.75 1123.96 1645.97 1023.68 1645.07 L 956.842 1645.16 C 931.427 1645.18 899.507 1648.09 879.845 1629.69 C 826.898 1580.13 851.063 1501.74 924.283 1495.22 z M 971.25 1598.35 C 992.351 1598.45 1060.41 1607.07 1052.97 1566.75 C 1050.76 1534.51 1002.75 1541.25 980.83 1541.51 C 956.414 1541.4 901.717 1532.99 898.193 1565.51 C 893.58 1608.09 945.154 1598.13 971.25 1598.35 z" fill="rgb(1,1,1)" transform="translate(0,0)"></path>
</svg>