<svg xmlns="http://www.w3.org/2000/svg" height="512" preserveAspectRatio="none" style="display: block;" version="1.1" viewBox="0 0 2048 2048" width="512">
<path d="M 661.634 266.373 C 709.185 256.731 729.245 300 748.974 330.291 C 785.526 386.409 819.921 443.942 855.087 500.946 L 1286.82 1195.24 C 1314.7 1239.4 1310.13 1240.27 1351.4 1274.68 L 1437.14 1344.94 C 1448.76 1354.47 1463.83 1364.93 1474.2 1375.31 C 1492.69 1360.29 1506.81 1361.45 1524.46 1376.19 L 1669.77 1496.69 C 1692.43 1515.02 1712.41 1526.33 1722.25 1555.18 C 1738.97 1604.21 1707.58 1653.35 1656.1 1658.72 C 1608.13 1663.72 1566.44 1611.46 1530.32 1581.71 C 1553.36 1623.93 1597.48 1672.68 1586.73 1719.75 C 1574.77 1772.09 1515.95 1796.64 1469.53 1771.51 C 1437.16 1754.01 1353.67 1601.73 1330.13 1565.11 C 1320.22 1549.68 1319.28 1540.92 1323.59 1523.4 C 1298.79 1481.02 1269.59 1437.04 1242.85 1395.64 C 1238.59 1389.04 1209.33 1368.01 1201.01 1361.26 L 1109.52 1286.28 C 1099.09 1276.55 1079.78 1261.32 1068.12 1251.26 L 411.478 694.246 C 387.257 674.108 360.751 653.519 337.694 632.136 C 282.04 578.048 352.185 477.497 421.945 519.77 C 436.256 528.442 457.557 548.67 471.132 560.082 L 957.494 972.073 C 972.548 985.002 994.859 1005.63 1009.89 1016.74 L 1010.95 1017.52 C 994.255 993.939 976.956 965.187 961.311 940.66 L 631.8 408.558 C 624.115 395.953 616.188 383.549 608.665 370.836 C 582.91 327.318 612.253 272.184 661.634 266.373 z M 829.116 643.87 C 839.356 664.669 864.119 701.215 877.502 722.369 L 1322.87 1437.54 C 1332.8 1453.18 1353.45 1483.35 1360.92 1499.09 C 1375.39 1492.08 1391.75 1482.56 1405.25 1473.57 L 903.711 664.186 C 899.173 656.78 878.862 620.216 874.808 616.372 C 864.4 623.419 840.071 639.238 829.116 643.87 z M 602.93 797.47 C 625.851 818.893 647.799 836.688 671.697 856.804 L 1098.69 1217.97 C 1117.79 1233.89 1136.43 1251.09 1155.46 1266.74 C 1161.67 1271.99 1168.05 1277.28 1174.1 1282.69 C 1163.67 1265.37 1096.79 1152.81 1085.66 1141.71 C 1068.65 1124.74 1044.44 1106.12 1025.57 1090.29 L 691.673 806.146 C 673.059 790.561 654.315 773.726 635.643 758.564 C 626.829 769.537 612.577 788.459 602.93 797.47 z M 805.329 606.492 C 809.602 604.181 816.751 600.553 820.533 598.005 C 829.91 592.605 841.009 585.47 850.205 580.524 C 830.028 537.143 788.719 478.212 763.008 436.754 L 720.836 367.403 C 708.808 347.523 692.242 308.232 666.517 309.125 C 621.089 329.459 653.197 357.846 670.287 386.2 L 760.694 533.673 C 774.668 556.33 792.847 583.512 805.329 606.492 z M 1390.5 1364.78 C 1401.13 1385.25 1419.89 1409 1432.39 1430.55 L 1438.99 1422.5 C 1441.54 1419.31 1443.96 1416.5 1446.67 1413.44 C 1435.92 1400.22 1405.04 1376.05 1390.5 1364.78 z M 1490.17 1730.51 C 1522.43 1747.06 1552.91 1712.13 1541.73 1691.44 C 1532.75 1674.83 1522.45 1658.32 1512.63 1642.22 L 1460.03 1556.39 C 1451.17 1541.92 1440.47 1525.56 1432.39 1510.86 C 1419.49 1518 1381.3 1538.26 1371.33 1546.26 C 1400.31 1584.87 1467.75 1716.06 1490.17 1730.51 z M 386.093 555.183 C 367.634 559.027 351.407 585.109 368.326 600.187 C 395.887 624.747 425.472 647.278 453.639 671.189 L 533.384 739.454 C 540.42 745.521 567.765 775.363 573.188 765.52 C 583.064 752.76 593.235 741.479 602.93 729.178 C 585.896 717.996 558.709 693.502 542.192 679.347 L 441.2 592.857 C 427.195 580.941 403.697 553.778 386.093 555.183 z M 1499.72 1413.44 C 1486.81 1430.28 1473.75 1449.72 1461.73 1467.36 C 1484.7 1485.55 1632.51 1612.9 1644.75 1613.01 C 1673.22 1613.65 1692.19 1589.29 1677.15 1562.33 C 1673.41 1555.62 1555.64 1460.57 1535.74 1443.97 C 1528.2 1437.69 1505.64 1416.43 1499.72 1413.44 z" fill="rgb(1,1,1)" transform="translate(0,0)"></path>
</svg>