<svg xmlns="http://www.w3.org/2000/svg" height="512" preserveAspectRatio="none" style="display: block;" version="1.1" viewBox="0 0 2048 2048" width="512">
<path d="M 682.93 267.482 C 899.639 248.888 1098.79 432.359 1124.48 645.009 C 1135.85 739.183 1114.92 856.643 1055.83 933.23 C 1111.85 990.724 1180.46 1049.43 1231.69 1109.56 C 1252.51 1085.83 1278.88 1063.1 1300.57 1039.5 C 1345.46 990.648 1429.09 1025.68 1425.43 1092.47 C 1423.48 1128.16 1401.83 1142.7 1377.28 1165.22 C 1392.34 1177.68 1406.97 1192.03 1422.13 1204.87 L 1681.08 1425.48 C 1698.02 1439.8 1711.47 1450.08 1726.36 1466.87 C 1797.51 1547.11 1791.31 1669.76 1708.31 1738.84 C 1627.08 1806.46 1516.76 1780.92 1451.8 1704.67 C 1439.67 1690.41 1426.42 1676.53 1413.88 1662.56 L 1161.57 1380.97 C 1141.06 1401.2 1133.74 1415.82 1104.31 1418.1 C 1024.59 1424.28 991.87 1330.99 1056.37 1283.12 C 1067.68 1274.73 1105.23 1234.66 1111.82 1226.45 C 1053.93 1167.86 993.796 1111.41 936.162 1052.52 C 885.232 1090.67 801.758 1115.6 738.742 1120.62 C 359.823 1151.04 123.872 709.193 374.368 419.859 C 459.406 321.636 554.636 277.488 682.93 267.482 z M 831.405 945.237 C 782.313 895.432 729.659 852.547 697.613 790.042 C 692.28 790.336 688.29 790.714 682.93 790.042 C 544.003 748.919 607.77 569.144 730.416 602.94 C 768.998 613.572 787.75 644.167 797.454 680.882 C 846.046 726.086 899.271 789.58 948.686 830.096 C 1014.97 678.301 974.151 506.327 811.948 437.62 C 777.751 423.134 730.129 411.1 692.318 414.415 C 530.848 424.128 405.033 549.746 418.224 714.381 C 430.945 873.143 565.583 983.837 723.07 975.376 C 750.99 973.876 808.245 961.314 831.405 945.237 z M 1582.08 1733.25 C 1709.05 1748.38 1776.07 1595.7 1700.42 1502.95 C 1684 1483.46 1659.44 1463.39 1639.86 1446.49 L 1416.55 1255.95 C 1399.38 1241.05 1364.65 1209.49 1346.66 1197.33 C 1339.67 1205.37 1331.36 1213.04 1323.72 1220.52 C 1281.22 1262.08 1230.47 1309.56 1191 1353.8 C 1199.52 1360.27 1213.75 1376.77 1221.35 1385.12 L 1442.41 1631.12 C 1480.43 1673.97 1518.96 1730.11 1582.08 1733.25 z M 906.017 1021.6 C 891.234 1007.15 874.634 991.516 861.251 975.986 C 820.951 1003.86 757.295 1018.2 708.7 1018.82 C 549.203 1020.86 396.809 902.412 378.353 741.008 C 351.825 561.48 476.754 400.906 654.599 374.392 C 924.122 334.209 1116.96 633.631 980.959 860.139 C 994.148 873.74 1010.63 890.777 1024.97 902.939 C 1034.65 885.805 1044.69 870.495 1052.84 852.323 C 1167.75 596.107 966.869 298.472 692.318 310.943 C 484.813 308.624 317.255 489.646 314.986 693.98 C 311.597 999.092 664.548 1181.53 906.017 1021.6 z M 743.076 782.975 C 757.871 814.097 836.048 893.048 868.563 922.437 C 870.748 921.441 871.522 921.135 873.49 919.797 C 889.831 908.195 914.745 885.79 925.31 868.615 C 879.97 826.952 833.388 777.626 790.228 733.504 C 776.684 762.381 769.54 766.821 743.076 782.975 z M 898.245 955.818 C 980.116 1034.4 1059.45 1121.44 1143.04 1197.33 C 1163.09 1177.6 1180.43 1158.74 1201.39 1139.33 C 1136.38 1075.29 1073.04 1008.53 1006.66 945.754 C 991.87 931.765 973.132 909.528 958.197 897.885 C 941.566 920.309 920.21 938.802 898.245 955.818 z M 694.813 641.569 C 664.909 645.346 643.729 672.649 647.505 702.553 C 651.282 732.458 678.585 753.638 708.489 749.862 C 738.393 746.085 759.574 718.782 755.797 688.878 C 752.021 658.974 724.717 637.793 694.813 641.569 z M 1346.66 1059.11 C 1323.69 1069.92 1221.61 1180.02 1199.45 1202.13 L 1119.37 1280.79 C 1105.14 1294.73 1073.9 1323.25 1065.04 1338.5 C 1064.76 1362.67 1074.33 1379.02 1101 1376.07 C 1116.45 1370.56 1155.99 1326.53 1170.82 1311.92 L 1325.85 1156.84 C 1341.95 1140.61 1366.5 1118.09 1380.43 1099.96 C 1393.39 1083.09 1372.5 1058 1346.66 1059.11 z" fill="rgb(1,1,1)" transform="translate(0,0)"></path>
<path d="M 1637.41 1513 C 1727 1511.71 1543.96 1658.69 1540.03 1660.07 C 1516.73 1664.83 1505.08 1636.24 1526.56 1618.17 C 1554.52 1594.67 1612.2 1525.51 1637.41 1513 z" fill="rgb(1,1,1)" transform="translate(0,0)"></path>
</svg>